<svg xmlns="http://www.w3.org/2000/svg" viewBox="0 0 512 512" role="img" aria-label="AstrBot Community Plugins">
  <rect x="32" y="32" width="448" height="448" rx="104" fill="#0e74e4"/>
  <path
    d="M200 198c0-44 24-74 56-74s56 30 56 74"
    fill="none"
    stroke="#ffffff"
    stroke-width="28"
    stroke-linecap="round"
  />
  <path d="M150 204h212l-20 188H170z" fill="#ffffff"/>
  <path
    d="m256 248 17 35 39 6-28 27 7 39-35-19-35 19 7-39-28-27 39-6z"
    fill="#0e74e4"
  />
  <path d="m388 116 10 26 26 10-26 10-10 26-10-26-26-10 26-10z" fill="#ffffff"/>
  <path d="m126 332 8 20 20 8-20 8-8 20-8-20-20-8 20-8z" fill="#ffffff"/>
</svg>
